<?xml version="1.0" encoding="utf-8"?>
<!-- Generator: Adobe Illustrator 19.0.0, SVG Export Plug-In . SVG Version: 6.00 Build 0)  -->
<svg version="1.1" id="Layer_1" xmlns="http://www.w3.org/2000/svg" xmlns:xlink="http://www.w3.org/1999/xlink" x="0px" y="0px"
	 viewBox="-14.2 93.3 270.8 115" style="enable-background:new -14.2 93.3 270.8 115;" xml:space="preserve">
<style type="text/css">
	.st0{fill:#6DEDD8;}
</style>
<title>dsx_logo_options_web</title>
<path id="_Compound_Path_" class="st0" d="M198.6,93.6h-48.9c-5,0-9,4-9,9s4,9,9,9h6.1l-15.7,12.6l-18.9,15.1l-19-15.2l-15.7-12.5
	h6.1c5,0,9-4,9-9c0-5-4-9-9-9l0,0H43.7c-31.5-0.4-57.5,24.8-57.9,56.4c-0.4,31.5,24.8,57.5,56.4,57.9c0.5,0,1,0,1.5,0h48.8
	c5,0,9-4,9-9s-4-9-9-9h-5.8l6.5-5l27.9-22.4l28,22.5l6.5,5h-5.9c-5,0-9,4.1-9,9s4.1,9,9,9l0,0h48.8c31.6,0.4,57.5-24.9,57.9-56.4
	c0.4-31.6-24.9-57.5-56.4-57.9C199.6,93.6,199.1,93.6,198.6,93.6z M68.3,181.7c-7.1,5.4-15.7,8.3-24.6,8.2
	c-21.6,0-39.2-17.5-39.2-39.2s17.5-39.2,39.2-39.2h0.3c9,0,17.6,3.1,24.5,8.8l38.2,30.6L68.3,181.7z M198.6,190
	c-8.9,0.1-17.6-2.7-24.6-8.1L135.6,151l38.2-30.6c6.9-5.7,15.6-8.8,24.5-8.8h0.3c21.6-0.5,39.6,16.6,40.1,38.3
	c0.5,21.6-16.6,39.6-38.3,40.1C199.8,190,199.2,190,198.6,190L198.6,190z"/>
</svg>
